<svg width="120" height="120" viewBox="0 0 120 120" fill="none" xmlns="http://www.w3.org/2000/svg">
  <defs>
    <linearGradient id="logoGradient" x1="0%" y1="0%" x2="100%" y2="100%">
      <stop offset="0%" style="stop-color:#06B6D4;stop-opacity:1" />
      <stop offset="50%" style="stop-color:#8B5CF6;stop-opacity:1" />
      <stop offset="100%" style="stop-color:#A855F7;stop-opacity:1" />
    </linearGradient>
    <filter id="shadow">
      <feDropShadow dx="0" dy="2" stdDeviation="4" flood-opacity="0.15"/>
    </filter>
  </defs>

  <!-- Outer Circle with Gradient -->
  <circle cx="60" cy="60" r="58" fill="url(#logoGradient)" filter="url(#shadow)"/>

  <!-- Inner decorative ring -->
  <circle cx="60" cy="60" r="50" fill="none" stroke="white" stroke-width="1" opacity="0.2"/>

  <!-- Stylized "S" for Sales/Sensei -->
  <path d="M 45 35 Q 50 30, 60 30 Q 70 30, 75 35 Q 80 40, 78 48 Q 76 54, 68 56 L 52 60 Q 44 62, 42 70 Q 40 78, 45 83 Q 50 88, 60 88 Q 70 88, 75 83"
        stroke="white"
        stroke-width="6"
        stroke-linecap="round"
        stroke-linejoin="round"
        fill="none"/>

  <!-- Decorative accent lines (wisdom/teaching symbol) -->
  <path d="M 30 45 L 36 48" stroke="white" stroke-width="2.5" stroke-linecap="round" opacity="0.6"/>
  <path d="M 28 55 L 34 57" stroke="white" stroke-width="2.5" stroke-linecap="round" opacity="0.6"/>
  <path d="M 30 65 L 36 64" stroke="white" stroke-width="2.5" stroke-linecap="round" opacity="0.6"/>

  <path d="M 90 45 L 84 48" stroke="white" stroke-width="2.5" stroke-linecap="round" opacity="0.6"/>
  <path d="M 92 55 L 86 57" stroke="white" stroke-width="2.5" stroke-linecap="round" opacity="0.6"/>
  <path d="M 90 65 L 84 64" stroke="white" stroke-width="2.5" stroke-linecap="round" opacity="0.6"/>
</svg>
